# Alias OBJ Model File
# Exported from SketchUp, (c) 2000-2012 Trimble Navigation Limited
# File units = meters

mtllib Scaled_FO_GUIDE.mtl

g Mesh1 Model

usemtl FrontColor
v -0.001 0 -0.001
vt -0.0393701 0
vn -1 0 -0
v -0.001 0 -0
vt 0 0
v -0.001 0.035 -0
vt 0 1.37795
v -0.001 0.035 -0.001
vt -0.0393701 1.37795
f 1/1/1 2/2/1 3/3/1 4/4/1 

vn 0 0 1
v 0 0 -0
v 0 0.035 -0
f 2/1/2 5/2/2 6/3/2 3/4/2 

vn 1 0 -0
v 0 0 -0.001
vt 0.0393701 0
v 0 0.035 -0.001
vt 0.0393701 1.37795
f 5/2/3 7/5/3 8/6/3 6/3/3 

vn 0 0 -1
f 7/2/4 1/5/4 4/6/4 8/3/4 

